<?xml version="1.0" standalone="no"?>
<!DOCTYPE svg PUBLIC "-//W3C//DTD SVG 20010904//EN"
 "http://www.w3.org/TR/2001/REC-SVG-20010904/DTD/svg10.dtd">
<svg version="1.0" xmlns="http://www.w3.org/2000/svg"
 width="395.000000pt" height="395.000000pt" viewBox="0 0 395.000000 395.000000"
 preserveAspectRatio="xMidYMid meet">
<metadata>
Created by potrace 1.14, written by Peter Selinger 2001-2017
</metadata>
<g transform="translate(0.000000,395.000000) scale(0.100000,-0.100000)"
fill="#000000" stroke="none">
<path d="M1910 3576 c-131 -69 -577 -223 -883 -306 -171 -47 -181 -49 -209
-34 -42 22 -90 11 -122 -27 -56 -66 -17 -164 70 -176 37 -5 46 -1 80 29 32 28
60 40 149 63 287 73 813 251 942 318 25 14 32 13 76 -10 116 -58 580 -218 855
-293 169 -47 412 -94 423 -83 4 5 10 33 14 65 8 63 10 60 -75 73 -65 10 -318
71 -440 106 -260 75 -656 216 -771 275 -27 13 -52 24 -56 24 -4 -1 -28 -11
-53 -24z"/>
<path d="M2081 3124 c-36 -26 -54 -79 -41 -120 16 -48 53 -74 106 -74 23 0 45
4 48 9 3 5 79 -15 168 -44 148 -49 386 -113 481 -130 l37 -7 0 -174 c0 -419
-91 -726 -312 -1056 -119 -178 -314 -385 -502 -533 -49 -38 -100 -79 -114 -91
l-26 -21 38 -52 38 -52 37 28 c461 345 775 758 894 1178 69 244 86 411 79 757
l-2 126 -72 12 c-111 18 -365 85 -535 141 -125 41 -158 56 -186 84 -28 28 -43
35 -74 35 -21 0 -49 -7 -62 -16z"/>
<path d="M1596 3043 c-188 -64 -351 -109 -521 -144 -82 -16 -150 -31 -152 -33
-8 -8 -2 -482 7 -556 47 -370 195 -714 434 -1007 51 -62 66 -88 66 -113 0 -44
55 -100 99 -100 39 0 87 24 101 49 5 11 10 38 10 60 0 31 -7 46 -31 70 -17 17
-40 31 -52 32 -48 1 -224 244 -323 444 -133 271 -184 501 -184 827 l0 183 177
43 c97 24 259 70 360 104 184 60 185 60 178 87 -4 14 -14 42 -23 62 l-17 36
-129 -44z"/>
<path d="M567 2893 c-11 -10 -8 -244 3 -368 74 -796 459 -1450 1198 -2034 54
-43 92 -80 92 -91 0 -25 35 -65 69 -80 40 -16 78 -6 113 32 33 35 38 89 12
127 -18 25 -71 51 -104 51 -40 0 -296 215 -484 407 -531 545 -775 1132 -776
1876 l0 87 -58 0 c-32 0 -62 -3 -65 -7z"/>
<path d="M1857 2773 c-139 -56 -363 -125 -502 -156 l-110 -24 -3 -149 c-10
-512 191 -895 665 -1266 l60 -47 89 72 c236 190 384 367 497 593 96 192 137
385 137 648 l0 156 -25 0 c-66 0 -449 114 -630 187 l-70 28 -108 -42z"/>
<path d="M3253 2770 c-29 -12 -63 -67 -63 -101 0 -15 10 -39 21 -53 21 -27 21
-31 10 -144 -44 -443 -210 -852 -501 -1240 l-99 -131 49 -41 48 -40 44 53
c170 202 328 468 433 732 78 196 146 483 160 685 6 73 12 99 26 113 41 39 36
101 -11 148 -30 30 -72 37 -117 19z"/>
</g>
</svg>
